<!DOCTYPE svg PUBLIC "-//W3C//DTD SVG 1.1//EN" "http://www.w3.org/Graphics/SVG/1.1/DTD/svg11.dtd">
<!-- Uploaded to: SVG Repo, www.svgrepo.com, Transformed by: SVG Repo Mixer Tools -->
<svg fill="#ffffff" width="800px" height="800px" viewBox="0 0 24 24" role="img" xmlns="http://www.w3.org/2000/svg" stroke="#ffffff">
<g id="SVGRepo_bgCarrier" stroke-width="0"/>
<g id="SVGRepo_tracerCarrier" stroke-linecap="round" stroke-linejoin="round"/>
<g id="SVGRepo_iconCarrier">
<title>Sublime Text icon</title>
<path d="M21.24,12.06a.72.72,0,0,0-.46-.65L13.4,9.07l7.37-2.34a.73.73,0,0,0,.47-.66V.38A.35.35,0,0,0,20.77,0L3.23,5.58a.68.68,0,0,0-.47.64v5.7a.65.65,0,0,0,.46.62l7.46,2.37L3.22,17.27a.73.73,0,0,0-.46.66v5.69a.34.34,0,0,0,.46.36l17.56-5.57a.65.65,0,0,0,.46-.62Z"/>
</g>
</svg>