<svg role="img" viewBox="0 0 100 100" xmlns="http://www.w3.org/2000/svg" id="Virtualbox--Streamline-Simple-Icons" height="100" width="100"><desc>Virtualbox Streamline Icon: https://streamlinehq.com</desc><title>VirtualBox</title><path d="M50 0a1.9875 1.9875 0 0 0 -0.7833333333333334 0.19583333333333336L9.041666666666668 17.808333333333334c-1.1041666666666667 0.7041666666666667 -1.5750000000000002 1.5125 -1.55 2.8833333333333333l3.466666666666667 42.825c0.0375 0.44583333333333336 0.19583333333333336 0.6875000000000001 0.5333333333333334 1.0416666666666667l14.850000000000001 11.304166666666667s0.0625 8.395833333333334 1.8958333333333335 11.691666666666668C29.620833333333337 90.04166666666667 36.05 100.13750000000002 50 100c13.950000000000001 -0.1375 20.783333333333335 -8.458333333333334 22.85 -12.616666666666667 1.9583333333333333 -3.941666666666667 1.916666666666667 -12.133333333333335 1.916666666666667 -12.133333333333335l13.5625 -10.616666666666667a1.2916666666666667 1.2916666666666667 0 0 0 0.5833333333333335 -1.0750000000000002l3.5833333333333335 -42.958333333333336c0.10833333333333334 -1.3 -0.4291666666666667 -2.375 -1.5333333333333334 -2.854166666666667L50.75416666666667 0.19583333333333336A1.8125000000000002 1.8125000000000002 0 0 0 50 0zm-0.2125 4.491666666666667c0.225 0.008333333333333335 0.45 0.08333333333333334 0.7833333333333334 0.23333333333333336l30.90416666666667 14.2875L50.550000000000004 37.083333333333336c-0.47916666666666674 0.2416666666666667 -0.6916666666666668 0.2041666666666667 -1.1 0l-30.625 -17.76666666666667c-0.4708333333333334 -0.30833333333333335 -0.5 -0.5208333333333334 0 -0.8208333333333334l30.14166666666667 -13.808333333333335a2.225 2.225 0 0 1 0.8208333333333334 -0.19583333333333336zm0.04166666666666667 2.8666666666666667L24.604166666666668 19.12916666666667l25.175 14.541666666666668 25.27916666666667 -14.500000000000002zm0 1.5625 21.8 10.25 -13.591666666666669 7.583333333333334 -4.333333333333334 -2.3208333333333337 7.3500000000000005 -9.200000000000001 -8.908333333333333 3.4916666666666667L56.829166666666666 12.916666666666668l-13.55 5.608333333333334 4.583333333333334 -4.791666666666667 -4.075 -1.8750000000000002zm-7.654166666666667 3.5375 3.266666666666667 1.616666666666667 -8.812500000000002 8.741666666666667 15.062500000000002 -6.216666666666667 -5.191666666666667 6.258333333333334 9.320833333333335 -3.8833333333333337 -4.733333333333333 5.9125000000000005 5.133333333333334 2.7750000000000004 -6.500000000000001 3.6875000000000004 -21.45 -12.275000000000002zm-28.875 16.258333333333336c0.12083333333333335 0 0.3 0.08333333333333334 0.5625000000000001 0.225l30.333333333333336 19.070833333333333 0.07083333333333335 32.575 -28.554166666666667 -21.070833333333336c-0.32083333333333336 -0.3041666666666667 -0.43333333333333335 -0.4083333333333334 -0.4291666666666667 -0.8041666666666667l-2.166666666666667 -29.7375c0 -0.17916666666666667 0.0625 -0.25833333333333336 0.18333333333333335 -0.25833333333333336zm73.3 0.35833333333333334c0.125 0 0.17500000000000002 0.08333333333333334 0.17916666666666667 0.25833333333333336l-2.0625 29.27916666666667c0 0.4 -0.10833333333333334 0.5 -0.4291666666666667 0.8041666666666667l-28.512500000000003 21.170833333333338 0.17916666666666667 -32.520833333333336 30.07916666666667 -18.766666666666666a1.45 1.45 0 0 1 0.5666666666666668 -0.225zm-3.354166666666667 13.358333333333334 -0.7375 0.525 -0.5541666666666667 1.8416666666666668 -0.2041666666666667 -1.3125 -0.9416666666666668 0.625 0.6041666666666666 2.4916666666666667 -0.9333333333333335 3.8125000000000004 0.9708333333333334 -0.8125000000000001 0.35416666666666674 -2.1958333333333337 0.2666666666666667 1.7208333333333334 1.1583333333333334 -0.7666666666666667 -0.8125000000000001 -2.8416666666666672zm-65.45833333333334 1.0375c-0.5 -0.04583333333333334 -0.7916666666666667 0.5291666666666667 -0.7041666666666667 1.5416666666666667 0.11666666666666668 1.3625 0.875 3 1.7 3.654166666666667l1.7458333333333333 1.3750000000000002c0.8333333333333335 0.6583333333333334 1.4083333333333334 0.075 1.2791666666666668 -1.3041666666666667 -0.125 -1.3750000000000002 -0.9 -3.0166666666666666 -1.725 -3.6625l-1.7375 -1.3458333333333334a1.1041666666666667 1.1041666666666667 0 0 0 -0.5583333333333335 -0.25833333333333336zm0.3125 0.9791666666666666a0.7208333333333333 0.7208333333333333 0 0 1 0.3625 0.17083333333333336l1.6541666666666668 1.2916666666666667c0.5375000000000001 0.4208333333333334 1.0416666666666667 1.4916666666666667 1.1250000000000002 2.375 0.08333333333333334 0.8958333333333334 -0.29166666666666674 1.2666666666666668 -0.8291666666666667 0.8416666666666668l-1.666666666666667 -1.3125c-0.5333333333333334 -0.4208333333333334 -1.0250000000000001 -1.475 -1.1 -2.3583333333333334 -0.05833333333333334 -0.6583333333333334 0.125 -1.0375 0.4541666666666667 -1.0083333333333333zm61.7625 0.4291666666666667c0 -0.14583333333333337 -0.30833333333333335 0.04166666666666667 -0.47916666666666674 0.16666666666666669 -0.6666666666666667 0.5125000000000001 -1.4916666666666667 2.329166666666667 -1.55 4.45 -0.0625 2.316666666666667 0.45833333333333337 2.5791666666666666 1.0958333333333334 2.141666666666667 0.675 -0.45833333333333337 1.5916666666666668 -2.0500000000000003 1.6250000000000002 -4.275 0.02916666666666667 -1.7041666666666666 -0.6916666666666668 -2.0458333333333334 -0.6916666666666668 -2.4833333333333334zm-2.970833333333333 0.27916666666666673s-1.8291666666666668 0.7916666666666667 -1.8333333333333335 1.2291666666666667c-0.04166666666666667 2.7083333333333335 -0.29166666666666674 8.200000000000001 -0.29166666666666674 8.200000000000001l1.3833333333333335 -1.0458333333333334s1.3708333333333336 -0.9083333333333334 1.3916666666666668 -3.4166666666666665c0.0125 -1.6083333333333334 -0.525 -1.2916666666666667 -0.525 -1.2916666666666667s0.43333333333333335 -0.9083333333333334 0.4416666666666667 -2.141666666666667c0.020833333333333336 -1.8541666666666667 -0.5666666666666668 -1.5333333333333334 -0.5666666666666668 -1.5333333333333334zm2.5083333333333333 0.8916666666666667c0.47916666666666674 0 0.3916666666666667 1.116666666666667 0.38333333333333336 1.8583333333333334 -0.008333333333333335 0.7291666666666666 -0.3666666666666667 2.4 -0.75 2.679166666666667 -0.3875 0.2833333333333334 -0.41666666666666674 -1.0125 -0.4083333333333334 -1.7625000000000002 0.0125 -0.7208333333333333 0.30833333333333335 -2.7750000000000004 0.775 -2.7750000000000004zm-3 0.3125s0.33333333333333337 -0.20833333333333337 0.3041666666666667 0.8916666666666667a3.4541666666666666 3.4541666666666666 0 0 1 -0.3666666666666667 1.366666666666667l-0.5583333333333335 0.375 0.025 -2.241666666666667zm-2.1333333333333337 0.08750000000000001 -0.9541666666666667 0.5833333333333335 -0.25 7.679166666666667s-0.05833333333333334 0.7666666666666667 0.15 0.925c0.3 0.23333333333333336 1.1125 -0.7208333333333333 1.1125 -0.7208333333333333l-0.01666666666666667 -0.875s-0.3125 0.075 -0.3 -0.2416666666666667zM21.875 46.50000000000001l0.46666666666666673 4.983333333333333 0.5833333333333335 0.4625 -0.3791666666666667 -4.116666666666667 1.9208333333333336 1.5125a1.9583333333333333 1.9583333333333333 0 0 1 0.5708333333333334 1.1958333333333333c0.04166666666666667 0.45 -0.1375 0.6416666666666667 -0.4083333333333334 0.4291666666666667l-1.6500000000000001 -1.3041666666666667 1.9875 3.9000000000000004 0.8541666666666666 0.6791666666666667 -1.3333333333333335 -2.5708333333333333 0.2625 0.20833333333333337c0.5708333333333334 0.44583333333333336 0.9583333333333335 0.05416666666666667 0.8666666666666667 -0.8875000000000001 -0.09166666666666667 -0.9375000000000001 -0.625 -2.066666666666667 -1.1958333333333333 -2.5083333333333333zm54.37083333333334 3.2500000000000004s0.41666666666666674 -0.1 0.375 1.1625c-0.03333333333333334 1.0708333333333335 -0.375 1.4083333333333334 -0.375 1.4083333333333334l-0.6333333333333334 0.45833333333333337 0.05416666666666667 -2.5833333333333335zm-3.9583333333333335 0.725c-0.17500000000000002 -0.05 -0.425 0.025 -0.7875000000000001 0.32083333333333336 -0.44583333333333336 0.29166666666666674 -1.2708333333333335 1.5833333333333335 -1.2708333333333335 1.5833333333333335l0.03333333333333334 0.7916666666666667s0.47500000000000003 -0.5875 0.7125000000000001 -0.7791666666666667c0.9208333333333334 -0.9166666666666667 0.6875000000000001 0.375 0.6875000000000001 0.375l-0.020833333333333336 0.41250000000000003 -0.65 0.6083333333333334s-0.9625000000000001 0.9458333333333334 -1.0125 2.741666666666667c-0.025 0.8583333333333334 0.2833333333333334 1.4583333333333333 0.75 1.1041666666666667 0.45833333333333337 -0.34166666666666673 1.0291666666666668 -1.3750000000000002 1.0291666666666668 -1.3750000000000002l0.01666666666666667 0.6 0.7916666666666667 -0.7083333333333335 0.05416666666666667 -4.25s0.17916666666666667 -1.2791666666666668 -0.33333333333333337 -1.4250000000000003zm-44.60000000000001 0.525c-0.14583333333333337 -0.11666666666666668 -0.275 -0.1125 -0.33333333333333337 0.01666666666666667l-1.3916666666666668 3.333333333333334 0.6958333333333334 0.5541666666666667 1.1375000000000002 -2.795833333333334 1.0583333333333333 2.875 -1.5833333333333335 -1.25 0.4375 1.166666666666667 1.6083333333333334 1.2791666666666668 0.4291666666666667 1.166666666666667 0.7083333333333335 0.5583333333333335 -2.3833333333333333 -6.325a1.4083333333333334 1.4083333333333334 0 0 0 -0.38333333333333336 -0.5791666666666667zm41.89166666666667 1.4583333333333333 -0.75 0.55 -0.04166666666666667 4.491666666666667s-0.4083333333333334 0.7916666666666667 -0.5833333333333335 0.9041666666666667c-0.3 0.19583333333333336 -0.29166666666666674 -0.44583333333333336 -0.29166666666666674 -0.44583333333333336l0.0625 -4.25 -0.8 0.6041666666666666 -0.0625 4.25s-0.04583333333333334 1.9041666666666668 0.7583333333333334 1.3041666666666667a3.2458333333333336 3.2458333333333336 0 0 0 0.925 -1.3458333333333334l0.07083333333333335 0.5333333333333334 0.6416666666666667 -0.45833333333333337zm-3.358333333333334 0.45833333333333337 -0.6833333333333335 0.45 -0.275 2.0375 -0.32083333333333336 0.2041666666666667v0.09583333333333334l-0.6333333333333334 0.39583333333333337c-0.25 0.3875 -0.4083333333333334 1.5833333333333335 -0.4083333333333334 1.5833333333333335l0.008333333333333335 -1.2 -0.7291666666666666 0.5166666666666667 -0.16666666666666669 6.179166666666667 0.8250000000000001 -0.5958333333333333 0.17916666666666667 -3.654166666666667s0.13333333333333336 -0.8791666666666667 0.4083333333333334 -1.3375000000000001l0.44583333333333336 -0.35833333333333334 0.07083333333333335 -1.2875 0.008333333333333335 0.6458333333333334 0.275 -0.23333333333333336 -0.03333333333333334 3.9375s-0.0625 1.3083333333333333 0.625 0.85c0.23750000000000002 -0.1625 0.8875000000000001 -0.9583333333333335 0.8875000000000001 -0.9583333333333335L66.66666666666667 59.38333333333334s-0.3166666666666667 0.29583333333333334 -0.41666666666666674 0.35833333333333334c-0.15416666666666667 0.09583333333333334 -0.15 -0.2416666666666667 -0.15 -0.2416666666666667l0.08750000000000001 -3.8125000000000004 0.45833333333333337 -0.32083333333333336 -0.0125 -1 -0.4 0.25zm-35.62916666666667 0.5833333333333335c-0.5166666666666667 -0.05 -0.8208333333333334 0.5416666666666667 -0.7125000000000001 1.6 0.14583333333333337 1.4125 0.9666666666666668 3.1166666666666667 1.8333333333333335 3.804166666666667l1.8708333333333336 1.4708333333333334 0.25833333333333336 -0.625 -2.1833333333333336 -1.7291666666666667c-0.5583333333333335 -0.44583333333333336 -1.0958333333333334 -1.5416666666666667 -1.1916666666666667 -2.4583333333333335 -0.09583333333333334 -0.9125000000000001 0.29166666666666674 -1.2916666666666667 0.8458333333333334 -0.8583333333333334l1.7625000000000002 1.3875000000000002 0.25833333333333336 -0.625 -2.154166666666667 -1.7a1.166666666666667 1.166666666666667 0 0 0 -0.5875 -0.2666666666666667zm41.04166666666667 0.7166666666666667v1.4875s-0.44583333333333336 0.525 -0.65 0.6458333333333334c-0.2 0.12083333333333335 -0.25 -0.22916666666666669 -0.25 -0.5375000000000001a1.9041666666666668 1.9041666666666668 0 0 1 0.4916666666666667 -1.2208333333333334zm-9.275 0.7125000000000001c-0.27916666666666673 0.2 -0.5125000000000001 0.7833333333333334 -0.5166666666666667 1.3041666666666667 0 0.5208333333333334 0.22083333333333335 0.7791666666666667 0.5 0.5833333333333335 0.2833333333333334 -0.2 0.5208333333333334 -0.7833333333333334 0.525 -1.3083333333333333 0 -0.5208333333333334 -0.225 -0.7833333333333334 -0.5083333333333333 -0.5791666666666667zm-28.695833333333333 0.7875000000000001 0.5 4.666666666666668a1.2333333333333334 1.2333333333333334 0 0 0 0.3625 0.7416666666666667l2.804166666666667 2.216666666666667 0.25833333333333336 -0.6333333333333334 -2.858333333333334 -2.2625 -0.45833333333333337 -4.258333333333334zm27.85 0.4541666666666667 -0.8875000000000001 0.65s-0.09166666666666667 1.5458333333333334 -0.7583333333333334 7.041666666666667c-0.55 -4.083333333333334 -0.55 -6.041666666666667 -0.55 -6.041666666666667l-1.0250000000000001 0.6791666666666667 0.6333333333333334 7.5125 1.5208333333333335 -0.8666666666666667zm1.0791666666666668 1.2416666666666667 -0.8208333333333334 0.5875 -0.25833333333333336 6.270833333333333 0.8208333333333334 -0.5916666666666667zm-24.629166666666666 1.8583333333333334c-0.5291666666666667 -0.05416666666666667 -0.8250000000000001 0.5541666666666667 -0.7041666666666667 1.6333333333333335 0.1625 1.4416666666666667 1.0166666666666666 3.1875000000000004 1.9041666666666668 3.891666666666667l1.916666666666667 1.5166666666666668 0.2666666666666667 -0.6416666666666667 -2.254166666666667 -1.7750000000000001c-0.47500000000000003 -0.375 -0.9375000000000001 -1.2083333333333333 -1.1375000000000002 -2.0208333333333335l2.6500000000000004 2.0833333333333335 0.25833333333333336 -0.6375000000000001 -3.0166666666666666 -2.375c0.04166666666666667 -0.6083333333333334 0.3916666666666667 -0.8166666666666668 0.8625 -0.44583333333333336l1.8166666666666669 1.429166666666667 0.25833333333333336 -0.6333333333333334 -2.225 -1.7416666666666667a1.2166666666666668 1.2166666666666668 0 0 0 -0.5958333333333333 -0.2833333333333334zm3.204166666666667 2.4458333333333333c-0.05416666666666667 0.05416666666666667 -0.08333333333333334 0.17500000000000002 -0.0625 0.3375a1.4625 1.4625 0 0 0 0.4375 0.875c0.2 0.15833333333333335 0.33333333333333337 0.025 0.29166666666666674 -0.3041666666666667a1.5 1.5 0 0 0 -0.4375 -0.8833333333333334c-0.1 -0.075 -0.17500000000000002 -0.08333333333333334 -0.22916666666666669 -0.025zm0.0625 0.13333333333333336c0.04166666666666667 -0.04166666666666667 0.10833333333333334 -0.04166666666666667 0.1875 0.01666666666666667 0.15833333333333335 0.125 0.30833333333333335 0.43333333333333335 0.33333333333333337 0.6875000000000001 0.03333333333333334 0.2625 -0.06666666666666668 0.3666666666666667 -0.22916666666666669 0.2416666666666667 -0.05 -0.04166666666666667 -0.0625 -0.14583333333333337 -0.10416666666666669 -0.2125l0.025 0.01666666666666667 -0.025 -0.25 0.0625 0.04166666666666667 0.10416666666666669 0.325 0.09166666666666667 0.07083333333333335 -0.125 -0.35000000000000003h0.01666666666666667c0.03333333333333334 -0.008333333333333335 0.0375 -0.05416666666666667 0.03333333333333334 -0.07916666666666668v-0.05416666666666667a0.5083333333333333 0.5083333333333333 0 0 0 -0.10416666666666669 -0.2416666666666667 0.5 0.5 0 0 0 -0.10833333333333334 -0.10416666666666669l-0.09583333333333334 -0.08333333333333334 0.0625 0.5708333333333334c-0.0625 -0.125 -0.15416666666666667 -0.20833333333333337 -0.16666666666666669 -0.33333333333333337 -0.020833333333333336 -0.13333333333333336 0 -0.22083333333333335 0.04166666666666667 -0.2625zm0.15 0.19583333333333336 0.025 0.01666666666666667c0.04166666666666667 0.03333333333333334 0.05416666666666667 0.04583333333333334 0.075 0.07083333333333335a0.29166666666666674 0.29166666666666674 0 0 1 0.04166666666666667 0.10833333333333334c0 0.025 0.008333333333333335 0.04166666666666667 0 0.05416666666666667 -0.008333333333333335 0.025 -0.0375 0.008333333333333335 -0.0625 -0.008333333333333335l-0.05416666666666667 -0.04166666666666667z" fill="#ffffff" stroke-width="4.1667"></path></svg>